# xmcd
# 
# Track frame offsets:
#   150
#   14715
#   29605
#   45060
#   64127
#   83032
#   98305
#   111615
#   126487
#   144415
#   160965
#   175035
#   191972
#   209102
#   226485
# 
# Disc length: 3263 seconds
# 
# Revision: 2
# Processed by: cddbd v1.5.1PL2 Copyright (c) Steve Scherf et al.
# Submitted via: Synapstar 1.0 
# 
DISCID=d60cbd0f
DTITLE=Various Artist - MM6336
DYEAR=1900
DGENRE=Country
TTITLE0=Dixie Chicks - If I Fall You're Going Down With Me
TTITLE1=Alan Jackson - When Somebody Loves You
TTITLE2=Brooks and Dunn - Ain't Nothing 'Bout You
TTITLE3=Brad Paisley - Two People Fell In Love
TTITLE4=George Strait - If You Can Do Anything Else
TTITLE5=Mark McGuinn - Mrs. Steven Rudy
TTITLE6=Kenny Rogers - There You Go Again
TTITLE7=Clay Walker - Say No More
TTITLE8=Chris Cagel - Laredo
TTITLE9=Tracy Byrd and Mark Chesnutt - A Good Way To Get On My Bad Side
TTITLE10=Gary Allen - Right Where I Had To Be
TTITLE11=Neal McCoy - Beatin' It In
TTITLE12=LeAnn Rimes - Soon
TTITLE13=Tracy Lawrence - Unforgiven
TTITLE14=Tim McGraw - Grown Men Don't Cry
EXTD=MediaType: Karaoke CD+G Producer: Music Maestro
EXTT0=
EXTT1=
EXTT2=
EXTT3=
EXTT4=
EXTT5=
EXTT6=
EXTT7=
EXTT8=
EXTT9=
EXTT10=
EXTT11=
EXTT12=
EXTT13=
EXTT14=
PLAYORDER=
